<svg xmlns="http://www.w3.org/2000/svg" width="180" height="30" viewBox="0 0 180 30"><g transform="translate(-872 -334)"><rect width="180" height="30" rx="15" transform="translate(872 334)" fill="#eae7e7"/><g transform="translate(223 -16)"><g transform="translate(145 -190)"><g transform="translate(529 547)" fill="#eae7e7" stroke="#707070" stroke-width="1" stroke-dasharray="2"><rect width="53" height="16" rx="8" stroke="none"/><rect x="0.5" y="0.5" width="52" height="15" rx="7.5" fill="none"/></g><text transform="translate(556 557)" fill="#9f9f9f" font-size="7" font-family="Roboto-Regular, Roboto"><tspan x="-16.211" y="0">REQUIRED</tspan></text></g><g transform="translate(223 -190)"><g transform="translate(529 547)" fill="#fff" stroke="#707070" stroke-width="1"><rect width="53" height="16" rx="8" stroke="none"/><rect x="0.5" y="0.5" width="52" height="15" rx="7.5" fill="none"/></g><text transform="translate(556 557)" fill="#9f9f9f" font-size="7" font-family="Roboto-Regular, Roboto"><tspan x="-9.904" y="0">CHILD</tspan></text></g><g transform="translate(3 -79.5)"><line x1="19" transform="translate(730.5 445)" fill="none" stroke="#707070" stroke-width="1"/><g transform="translate(724.5 448.5) rotate(-90)" fill="#707070"><path d="M 6.129478454589844 5.5 L 0.8705216646194458 5.5 L 3.5 0.9923228621482849 L 6.129478454589844 5.5 Z" stroke="none"/><path d="M 3.5 1.984635829925537 L 1.741037368774414 5 L 5.258962631225586 5 L 3.5 1.984635829925537 M 3.5 0 L 7 6 L 0 6 L 3.5 0 Z" stroke="none" fill="#707070"/></g></g></g></g></svg>